<?xml version="1.0" encoding="utf-8"?>
<!-- Generator: Adobe Illustrator 23.0.3, SVG Export Plug-In . SVG Version: 6.00 Build 0)  -->
<svg version="1.1" id="Capa_1" xmlns="http://www.w3.org/2000/svg" xmlns:xlink="http://www.w3.org/1999/xlink" x="0px" y="0px"
	 viewBox="0 0 512 512" style="enable-background:new 0 0 512 512;" xml:space="preserve">
<g>
	<path d="M512,256C512,114.8,397.2,0,256,0S0,114.8,0,256c0,74.6,32.1,141.8,83.1,188.6l-0.2,0.2l8.3,7c0.5,0.5,1.1,0.8,1.7,1.3
		c4.4,3.7,9,7.1,13.6,10.5c1.5,1.1,3,2.2,4.6,3.2c5,3.4,10.1,6.7,15.3,9.8c1.1,0.7,2.3,1.3,3.4,2c5.7,3.2,11.5,6.3,17.5,9.1
		c0.4,0.2,0.9,0.4,1.3,0.6c19.4,9,40.2,15.7,61.9,19.6c0.6,0.1,1.1,0.2,1.7,0.3c6.7,1.2,13.6,2.1,20.5,2.7c0.8,0.1,1.7,0.1,2.5,0.2
		c6.9,0.6,13.8,0.9,20.9,0.9c7,0,13.9-0.4,20.7-0.9c0.9-0.1,1.7-0.1,2.6-0.2c6.8-0.6,13.6-1.5,20.3-2.7c0.6-0.1,1.2-0.2,1.7-0.3
		c21.4-3.8,41.8-10.3,61-19.1c0.7-0.3,1.4-0.6,2.1-1c5.7-2.7,11.4-5.6,16.9-8.7c1.4-0.8,2.7-1.6,4.1-2.4c5-3,9.9-6,14.7-9.3
		c1.7-1.2,3.4-2.4,5.1-3.6c4.1-2.9,8.1-6,12-9.2c0.9-0.7,1.8-1.3,2.6-2l8.5-7.1l-0.3-0.2C479.6,398.4,512,330.9,512,256z M18.6,256
		C18.6,125.1,125.1,18.6,256,18.6S493.4,125.1,493.4,256c0,70.5-31,133.9-80,177.5c-2.7-1.9-5.5-3.6-8.3-5l-78.8-39.4
		c-7.1-3.5-11.5-10.6-11.5-18.6V343c1.8-2.3,3.8-4.8,5.7-7.6c10.2-14.4,18.4-30.4,24.4-47.7c11.8-5.6,19.4-17.4,19.4-30.6v-33
		c0-8.1-3-15.9-8.3-22.1v-43.4c0.5-4.8,2.2-32.1-17.5-54.6c-17.2-19.6-44.9-29.5-82.5-29.5s-65.4,9.9-82.5,29.5
		c-19.7,22.5-18,49.8-17.5,54.6V202c-5.3,6.2-8.3,14-8.3,22.1v33c0,10.2,4.6,19.8,12.5,26.3c7.5,29.5,23.1,51.9,28.8,59.5v26.9
		c0,7.6-4.1,14.6-10.8,18.2l-73.6,40.2c-2.3,1.3-4.7,2.8-7,4.4C49.1,389,18.6,326,18.6,256z M395.3,448.1c-3.3,2.4-6.6,4.7-9.9,6.8
		c-1.5,1-3.1,2-4.7,3c-4.4,2.7-8.9,5.3-13.4,7.7c-1,0.5-2,1-3,1.6c-10.5,5.4-21.3,10-32.5,13.7c-0.4,0.1-0.8,0.3-1.2,0.4
		c-5.8,1.9-11.7,3.7-17.7,5.1c0,0,0,0-0.1,0c-6,1.5-12.1,2.7-18.3,3.7c-0.2,0-0.3,0.1-0.5,0.1c-5.8,0.9-11.6,1.6-17.5,2.1
		c-1,0.1-2.1,0.2-3.1,0.2c-5.8,0.4-11.6,0.7-17.4,0.7c-5.9,0-11.8-0.3-17.6-0.7c-1-0.1-2-0.1-3-0.2c-5.9-0.5-11.8-1.2-17.6-2.2
		c-0.3,0-0.5-0.1-0.8-0.1c-12.3-2.1-24.4-5.1-36.2-9c-0.4-0.1-0.7-0.3-1.1-0.4c-5.9-2-11.6-4.2-17.3-6.6c0,0-0.1,0-0.1-0.1
		c-5.4-2.3-10.7-4.9-15.9-7.6c-0.7-0.4-1.4-0.7-2-1.1c-4.8-2.5-9.4-5.3-14-8.2c-1.4-0.9-2.7-1.7-4-2.6c-4.2-2.8-8.4-5.6-12.5-8.7
		c-0.4-0.3-0.8-0.7-1.2-1c0.3-0.2,0.6-0.3,0.9-0.5l73.6-40.2c12.7-6.9,20.5-20.2,20.5-34.6l0-33.5l-2.1-2.6
		c-0.2-0.2-20.3-24.7-27.9-57.9l-0.8-3.7l-3.2-2.1c-4.5-2.9-7.2-7.7-7.2-13v-33c0-4.3,1.8-8.4,5.2-11.4l3.1-2.8V158l-0.1-1.2
		c0-0.2-2.8-22.6,13-40.6c13.5-15.3,36.5-23.1,68.5-23.1c31.9,0,54.9,7.7,68.4,23c15.8,17.8,13.2,40.6,13.2,40.8l-0.1,53.1l3.1,2.8
		c3.3,3,5.2,7.1,5.2,11.4v33c0,6.6-4.5,12.7-11,14.7l-4.6,1.4l-1.5,4.6c-5.5,17.1-13.3,32.8-23.2,46.8c-2.4,3.4-4.8,6.5-6.9,8.8
		l-2.3,2.6v34.4c0,15,8.3,28.5,21.8,35.2l78.8,39.4c0.5,0.3,1,0.5,1.5,0.8C397.3,446.6,396.3,447.3,395.3,448.1z"/>
</g>
</svg>
